<mxfile host="app.diagrams.net" modified="2024-05-22T03:46:51.253Z" agent="Mozilla/5.0 (Windows NT 10.0; Win64; x64) AppleWebKit/537.36 (KHTML, like Gecko) Chrome/124.0.0.0 Safari/537.36" etag="cYQCor4rN_Bkpm7WxUcC" version="24.4.4" type="device">
  <diagram name="Trang-1" id="Ez-roee0LSybu7dA_5UI">
    <mxGraphModel dx="2219" dy="958" grid="1" gridSize="10" guides="1" tooltips="1" connect="1" arrows="1" fold="1" page="1" pageScale="1" pageWidth="3300" pageHeight="4681" math="0" shadow="0">
      <root>
        <mxCell id="0" />
        <mxCell id="1" parent="0" />
        <mxCell id="I7UhPi0JV_NqZPCaO7OM-1" value="&lt;b&gt;Guest&lt;/b&gt;" style="shape=umlActor;verticalLabelPosition=bottom;verticalAlign=top;html=1;outlineConnect=0;direction=east;fontFamily=Times New Roman;fontSize=13;fontStyle=0" parent="1" vertex="1">
          <mxGeometry x="1120" y="1140" width="40" height="60" as="geometry" />
        </mxCell>
        <mxCell id="I7UhPi0JV_NqZPCaO7OM-5" value="Đăng kí" style="ellipse;whiteSpace=wrap;html=1;fontFamily=Times New Roman;fontSize=13;fontStyle=0" parent="1" vertex="1">
          <mxGeometry x="1600" y="1060" width="130" height="75" as="geometry" />
        </mxCell>
        <mxCell id="I7UhPi0JV_NqZPCaO7OM-7" value="" style="endArrow=none;html=1;rounded=0;entryX=0;entryY=0.5;entryDx=0;entryDy=0;fontFamily=Times New Roman;fontSize=13;fontStyle=0" parent="1" target="I7UhPi0JV_NqZPCaO7OM-5" edge="1">
          <mxGeometry width="50" height="50" relative="1" as="geometry">
            <mxPoint x="1190" y="1160" as="sourcePoint" />
            <mxPoint x="1560" y="1130" as="targetPoint" />
          </mxGeometry>
        </mxCell>
        <mxCell id="I7UhPi0JV_NqZPCaO7OM-8" value="Đăng xuất" style="ellipse;whiteSpace=wrap;html=1;fontFamily=Times New Roman;fontSize=13;fontStyle=0" parent="1" vertex="1">
          <mxGeometry x="1600" y="1180" width="130" height="75" as="geometry" />
        </mxCell>
        <mxCell id="I7UhPi0JV_NqZPCaO7OM-9" value="&lt;b&gt;User&lt;/b&gt;" style="shape=umlActor;verticalLabelPosition=bottom;verticalAlign=top;html=1;fontFamily=Times New Roman;fontSize=13;fontStyle=0" parent="1" vertex="1">
          <mxGeometry x="1120" y="1540" width="40" height="60" as="geometry" />
        </mxCell>
        <mxCell id="I7UhPi0JV_NqZPCaO7OM-12" value="Extend" style="html=1;verticalAlign=bottom;endArrow=open;dashed=1;endSize=8;curved=0;rounded=0;exitX=0.5;exitY=0;exitDx=0;exitDy=0;entryX=0.5;entryY=1;entryDx=0;entryDy=0;fontFamily=Times New Roman;fontSize=13;fontStyle=0" parent="1" source="I7UhPi0JV_NqZPCaO7OM-8" target="I7UhPi0JV_NqZPCaO7OM-5" edge="1">
          <mxGeometry x="-0.2" relative="1" as="geometry">
            <mxPoint x="1690" y="1200" as="sourcePoint" />
            <mxPoint x="1648" y="1140" as="targetPoint" />
            <mxPoint as="offset" />
          </mxGeometry>
        </mxCell>
        <mxCell id="I7UhPi0JV_NqZPCaO7OM-15" value="Đổi mật khẩu" style="ellipse;whiteSpace=wrap;html=1;fontFamily=Times New Roman;fontSize=13;fontStyle=0" parent="1" vertex="1">
          <mxGeometry x="1490" y="1320" width="130" height="75" as="geometry" />
        </mxCell>
        <mxCell id="I7UhPi0JV_NqZPCaO7OM-16" value="Đăng nhập" style="ellipse;whiteSpace=wrap;html=1;fontFamily=Times New Roman;fontSize=13;fontStyle=0" parent="1" vertex="1">
          <mxGeometry x="1720" y="1315" width="130" height="75" as="geometry" />
        </mxCell>
        <mxCell id="I7UhPi0JV_NqZPCaO7OM-17" value="Xem danh sách sản phẩm" style="ellipse;whiteSpace=wrap;html=1;fontFamily=Times New Roman;fontSize=13;fontStyle=0" parent="1" vertex="1">
          <mxGeometry x="1650" y="1450" width="130" height="75" as="geometry" />
        </mxCell>
        <mxCell id="I7UhPi0JV_NqZPCaO7OM-18" value="Tìm kiếm sản phẩm" style="ellipse;whiteSpace=wrap;html=1;fontFamily=Times New Roman;fontSize=13;fontStyle=0" parent="1" vertex="1">
          <mxGeometry x="1650" y="1532.5" width="130" height="75" as="geometry" />
        </mxCell>
        <mxCell id="I7UhPi0JV_NqZPCaO7OM-19" value="Theo tên" style="ellipse;whiteSpace=wrap;html=1;fontFamily=Times New Roman;fontSize=13;fontStyle=0" parent="1" vertex="1">
          <mxGeometry x="1840" y="1532.5" width="130" height="75" as="geometry" />
        </mxCell>
        <mxCell id="I7UhPi0JV_NqZPCaO7OM-20" value="Lọc danh sách sản phẩm" style="ellipse;whiteSpace=wrap;html=1;fontFamily=Times New Roman;fontSize=13;fontStyle=0" parent="1" vertex="1">
          <mxGeometry x="1645" y="1620" width="130" height="75" as="geometry" />
        </mxCell>
        <mxCell id="I7UhPi0JV_NqZPCaO7OM-21" value="Theo hãng" style="ellipse;whiteSpace=wrap;html=1;fontFamily=Times New Roman;fontSize=13;fontStyle=0" parent="1" vertex="1">
          <mxGeometry x="1850" y="1620" width="130" height="75" as="geometry" />
        </mxCell>
        <mxCell id="I7UhPi0JV_NqZPCaO7OM-22" value="Sắp xếp sản phẩm theo giá" style="ellipse;whiteSpace=wrap;html=1;fontFamily=Times New Roman;fontSize=13;fontStyle=0" parent="1" vertex="1">
          <mxGeometry x="1640" y="1720" width="130" height="75" as="geometry" />
        </mxCell>
        <mxCell id="I7UhPi0JV_NqZPCaO7OM-23" value="Sắp xếp theo giá tăng dần" style="ellipse;whiteSpace=wrap;html=1;fontFamily=Times New Roman;fontSize=13;fontStyle=0" parent="1" vertex="1">
          <mxGeometry x="1740" y="1840" width="130" height="75" as="geometry" />
        </mxCell>
        <mxCell id="I7UhPi0JV_NqZPCaO7OM-24" value="Sắp xếp theo giá tăng dần" style="ellipse;whiteSpace=wrap;html=1;fontFamily=Times New Roman;fontSize=13;fontStyle=0" parent="1" vertex="1">
          <mxGeometry x="1530" y="1840" width="130" height="75" as="geometry" />
        </mxCell>
        <mxCell id="I7UhPi0JV_NqZPCaO7OM-32" value="Include" style="html=1;verticalAlign=bottom;endArrow=open;dashed=1;endSize=8;curved=0;rounded=0;exitX=0;exitY=1;exitDx=0;exitDy=0;entryX=0.5;entryY=0;entryDx=0;entryDy=0;fontFamily=Times New Roman;fontSize=13;fontStyle=0" parent="1" source="I7UhPi0JV_NqZPCaO7OM-22" target="I7UhPi0JV_NqZPCaO7OM-24" edge="1">
          <mxGeometry x="0.1207" relative="1" as="geometry">
            <mxPoint x="1870" y="1770" as="sourcePoint" />
            <mxPoint x="1790" y="1770" as="targetPoint" />
            <mxPoint x="1" as="offset" />
          </mxGeometry>
        </mxCell>
        <mxCell id="I7UhPi0JV_NqZPCaO7OM-33" value="Include" style="html=1;verticalAlign=bottom;endArrow=open;dashed=1;endSize=8;curved=0;rounded=0;exitX=1;exitY=1;exitDx=0;exitDy=0;entryX=0.5;entryY=0;entryDx=0;entryDy=0;fontFamily=Times New Roman;fontSize=13;fontStyle=0" parent="1" source="I7UhPi0JV_NqZPCaO7OM-22" target="I7UhPi0JV_NqZPCaO7OM-23" edge="1">
          <mxGeometry x="0.1207" relative="1" as="geometry">
            <mxPoint x="1705" y="1821" as="sourcePoint" />
            <mxPoint x="1660" y="1890" as="targetPoint" />
            <mxPoint x="1" as="offset" />
          </mxGeometry>
        </mxCell>
        <mxCell id="I7UhPi0JV_NqZPCaO7OM-34" value="" style="endArrow=block;endSize=16;endFill=0;html=1;rounded=0;fontFamily=Times New Roman;fontSize=13;fontStyle=0" parent="1" edge="1">
          <mxGeometry width="160" relative="1" as="geometry">
            <mxPoint x="1139.5" y="1230" as="sourcePoint" />
            <mxPoint x="1139.5" y="1530" as="targetPoint" />
          </mxGeometry>
        </mxCell>
        <mxCell id="I7UhPi0JV_NqZPCaO7OM-35" value="Include" style="html=1;verticalAlign=bottom;endArrow=open;dashed=1;endSize=8;curved=0;rounded=0;exitX=1;exitY=0.5;exitDx=0;exitDy=0;entryX=0;entryY=0.5;entryDx=0;entryDy=0;fontFamily=Times New Roman;fontSize=13;fontStyle=0" parent="1" source="I7UhPi0JV_NqZPCaO7OM-18" target="I7UhPi0JV_NqZPCaO7OM-19" edge="1">
          <mxGeometry x="0.1207" relative="1" as="geometry">
            <mxPoint x="1705" y="1821" as="sourcePoint" />
            <mxPoint x="1660" y="1890" as="targetPoint" />
            <mxPoint x="1" as="offset" />
          </mxGeometry>
        </mxCell>
        <mxCell id="I7UhPi0JV_NqZPCaO7OM-36" value="Include" style="html=1;verticalAlign=bottom;endArrow=open;dashed=1;endSize=8;curved=0;rounded=0;exitX=1;exitY=0.5;exitDx=0;exitDy=0;entryX=0;entryY=0.5;entryDx=0;entryDy=0;fontFamily=Times New Roman;fontSize=13;fontStyle=0" parent="1" source="I7UhPi0JV_NqZPCaO7OM-20" target="I7UhPi0JV_NqZPCaO7OM-21" edge="1">
          <mxGeometry x="0.1207" relative="1" as="geometry">
            <mxPoint x="1715" y="1831" as="sourcePoint" />
            <mxPoint x="1670" y="1900" as="targetPoint" />
            <mxPoint x="1" as="offset" />
          </mxGeometry>
        </mxCell>
        <mxCell id="I7UhPi0JV_NqZPCaO7OM-38" value="&lt;b&gt;Admin&lt;/b&gt;" style="shape=umlActor;verticalLabelPosition=bottom;verticalAlign=top;html=1;fontFamily=Times New Roman;fontSize=13;fontStyle=0" parent="1" vertex="1">
          <mxGeometry x="2440" y="1540" width="40" height="60" as="geometry" />
        </mxCell>
        <mxCell id="I7UhPi0JV_NqZPCaO7OM-39" value="Mua hàng" style="ellipse;whiteSpace=wrap;html=1;fontFamily=Times New Roman;fontSize=13;fontStyle=0" parent="1" vertex="1">
          <mxGeometry x="1300" y="1530" width="130" height="75" as="geometry" />
        </mxCell>
        <mxCell id="I7UhPi0JV_NqZPCaO7OM-40" value="" style="endArrow=none;html=1;rounded=0;entryX=0;entryY=0.5;entryDx=0;entryDy=0;fontFamily=Times New Roman;fontSize=13;fontStyle=0" parent="1" target="I7UhPi0JV_NqZPCaO7OM-39" edge="1">
          <mxGeometry width="50" height="50" relative="1" as="geometry">
            <mxPoint x="1190" y="1560" as="sourcePoint" />
            <mxPoint x="1730" y="1390" as="targetPoint" />
          </mxGeometry>
        </mxCell>
        <mxCell id="I7UhPi0JV_NqZPCaO7OM-44" value="Extend" style="html=1;verticalAlign=bottom;endArrow=open;dashed=1;endSize=8;curved=0;rounded=0;entryX=1;entryY=0;entryDx=0;entryDy=0;fontFamily=Times New Roman;fontSize=13;fontStyle=0;exitX=0;exitY=0.5;exitDx=0;exitDy=0;" parent="1" source="I7UhPi0JV_NqZPCaO7OM-17" target="I7UhPi0JV_NqZPCaO7OM-39" edge="1">
          <mxGeometry x="-0.2" relative="1" as="geometry">
            <mxPoint x="1620" y="1470" as="sourcePoint" />
            <mxPoint x="1630" y="1280" as="targetPoint" />
            <mxPoint as="offset" />
          </mxGeometry>
        </mxCell>
        <mxCell id="I7UhPi0JV_NqZPCaO7OM-45" value="Extend" style="html=1;verticalAlign=bottom;endArrow=open;dashed=1;endSize=8;curved=0;rounded=0;exitX=0;exitY=0.5;exitDx=0;exitDy=0;fontFamily=Times New Roman;fontSize=13;fontStyle=0;entryX=1;entryY=0.5;entryDx=0;entryDy=0;" parent="1" source="I7UhPi0JV_NqZPCaO7OM-18" target="I7UhPi0JV_NqZPCaO7OM-39" edge="1">
          <mxGeometry x="-0.2" relative="1" as="geometry">
            <mxPoint x="1409" y="1569" as="sourcePoint" />
            <mxPoint x="1470" y="1560" as="targetPoint" />
            <mxPoint as="offset" />
          </mxGeometry>
        </mxCell>
        <mxCell id="I7UhPi0JV_NqZPCaO7OM-46" value="Extend" style="html=1;verticalAlign=bottom;endArrow=open;dashed=1;endSize=8;curved=0;rounded=0;exitX=0;exitY=0.5;exitDx=0;exitDy=0;fontFamily=Times New Roman;fontSize=13;fontStyle=0;" parent="1" source="I7UhPi0JV_NqZPCaO7OM-20" target="I7UhPi0JV_NqZPCaO7OM-39" edge="1">
          <mxGeometry x="-0.2" relative="1" as="geometry">
            <mxPoint x="1419" y="1579" as="sourcePoint" />
            <mxPoint x="1370" y="1710" as="targetPoint" />
            <mxPoint as="offset" />
          </mxGeometry>
        </mxCell>
        <mxCell id="I7UhPi0JV_NqZPCaO7OM-47" value="Extend" style="html=1;verticalAlign=bottom;endArrow=open;dashed=1;endSize=8;curved=0;rounded=0;exitX=0;exitY=0.5;exitDx=0;exitDy=0;fontFamily=Times New Roman;fontSize=13;fontStyle=0;entryX=0.6;entryY=1;entryDx=0;entryDy=0;entryPerimeter=0;" parent="1" source="I7UhPi0JV_NqZPCaO7OM-22" target="I7UhPi0JV_NqZPCaO7OM-39" edge="1">
          <mxGeometry x="-0.2" relative="1" as="geometry">
            <mxPoint x="1429" y="1589" as="sourcePoint" />
            <mxPoint x="1370" y="1590" as="targetPoint" />
            <mxPoint as="offset" />
          </mxGeometry>
        </mxCell>
        <mxCell id="I7UhPi0JV_NqZPCaO7OM-49" value="Quản lí tài khoản user" style="ellipse;whiteSpace=wrap;html=1;fontFamily=Times New Roman;fontSize=13;fontStyle=0" parent="1" vertex="1">
          <mxGeometry x="2100" y="1240" width="130" height="75" as="geometry" />
        </mxCell>
        <mxCell id="I7UhPi0JV_NqZPCaO7OM-50" value="Thêm sản phẩm" style="ellipse;whiteSpace=wrap;html=1;fontFamily=Times New Roman;fontSize=13;fontStyle=0" parent="1" vertex="1">
          <mxGeometry x="2020" y="1480" width="130" height="75" as="geometry" />
        </mxCell>
        <mxCell id="I7UhPi0JV_NqZPCaO7OM-51" value="Xóa sản phẩm" style="ellipse;whiteSpace=wrap;html=1;fontFamily=Times New Roman;fontSize=13;fontStyle=0" parent="1" vertex="1">
          <mxGeometry x="2030" y="1570" width="130" height="75" as="geometry" />
        </mxCell>
        <mxCell id="I7UhPi0JV_NqZPCaO7OM-52" value="Chỉnh sửa sản phẩm" style="ellipse;whiteSpace=wrap;html=1;fontFamily=Times New Roman;fontSize=13;fontStyle=0" parent="1" vertex="1">
          <mxGeometry x="2060" y="1660" width="130" height="75" as="geometry" />
        </mxCell>
        <mxCell id="I7UhPi0JV_NqZPCaO7OM-53" value="Thống kê tổng doanh thu" style="ellipse;whiteSpace=wrap;html=1;fontFamily=Times New Roman;fontSize=13;fontStyle=0" parent="1" vertex="1">
          <mxGeometry x="2090" y="1750" width="130" height="75" as="geometry" />
        </mxCell>
        <mxCell id="I7UhPi0JV_NqZPCaO7OM-54" value="Thống kê các sản phẩm đã bán" style="ellipse;whiteSpace=wrap;html=1;fontFamily=Times New Roman;fontSize=13;fontStyle=0" parent="1" vertex="1">
          <mxGeometry x="1940" y="1840" width="130" height="75" as="geometry" />
        </mxCell>
        <mxCell id="I7UhPi0JV_NqZPCaO7OM-55" value="Thống kê số lượng đã bán" style="ellipse;whiteSpace=wrap;html=1;fontFamily=Times New Roman;fontSize=13;fontStyle=0" parent="1" vertex="1">
          <mxGeometry x="2090" y="1880" width="130" height="75" as="geometry" />
        </mxCell>
        <mxCell id="I7UhPi0JV_NqZPCaO7OM-56" value="Thống kê tổng doanh thu" style="ellipse;whiteSpace=wrap;html=1;fontFamily=Times New Roman;fontSize=13;fontStyle=0" parent="1" vertex="1">
          <mxGeometry x="2260" y="1840" width="130" height="75" as="geometry" />
        </mxCell>
        <mxCell id="I7UhPi0JV_NqZPCaO7OM-57" value="" style="endArrow=none;html=1;rounded=0;entryX=1;entryY=1;entryDx=0;entryDy=0;fontFamily=Times New Roman;fontSize=13;fontStyle=0" parent="1" target="I7UhPi0JV_NqZPCaO7OM-49" edge="1">
          <mxGeometry width="50" height="50" relative="1" as="geometry">
            <mxPoint x="2430" y="1540" as="sourcePoint" />
            <mxPoint x="2000" y="1520" as="targetPoint" />
          </mxGeometry>
        </mxCell>
        <mxCell id="I7UhPi0JV_NqZPCaO7OM-59" value="" style="endArrow=none;html=1;rounded=0;entryX=1;entryY=0.5;entryDx=0;entryDy=0;fontFamily=Times New Roman;fontSize=13;fontStyle=0" parent="1" target="I7UhPi0JV_NqZPCaO7OM-50" edge="1">
          <mxGeometry width="50" height="50" relative="1" as="geometry">
            <mxPoint x="2410" y="1590" as="sourcePoint" />
            <mxPoint x="2190" y="1580" as="targetPoint" />
          </mxGeometry>
        </mxCell>
        <mxCell id="I7UhPi0JV_NqZPCaO7OM-62" value="" style="endArrow=none;html=1;rounded=0;entryX=1;entryY=0.5;entryDx=0;entryDy=0;fontFamily=Times New Roman;fontSize=13;fontStyle=0" parent="1" target="I7UhPi0JV_NqZPCaO7OM-51" edge="1">
          <mxGeometry width="50" height="50" relative="1" as="geometry">
            <mxPoint x="2410" y="1610" as="sourcePoint" />
            <mxPoint x="2200" y="1590" as="targetPoint" />
          </mxGeometry>
        </mxCell>
        <mxCell id="I7UhPi0JV_NqZPCaO7OM-63" value="" style="endArrow=none;html=1;rounded=0;entryX=1;entryY=0.5;entryDx=0;entryDy=0;fontFamily=Times New Roman;fontSize=13;fontStyle=0" parent="1" target="I7UhPi0JV_NqZPCaO7OM-52" edge="1">
          <mxGeometry width="50" height="50" relative="1" as="geometry">
            <mxPoint x="2410" y="1630" as="sourcePoint" />
            <mxPoint x="2210" y="1680" as="targetPoint" />
          </mxGeometry>
        </mxCell>
        <mxCell id="I7UhPi0JV_NqZPCaO7OM-64" value="" style="endArrow=none;html=1;rounded=0;entryX=0.996;entryY=0.347;entryDx=0;entryDy=0;entryPerimeter=0;fontFamily=Times New Roman;fontSize=13;fontStyle=0" parent="1" target="I7UhPi0JV_NqZPCaO7OM-53" edge="1">
          <mxGeometry width="50" height="50" relative="1" as="geometry">
            <mxPoint x="2420" y="1650" as="sourcePoint" />
            <mxPoint x="2320" y="1840" as="targetPoint" />
          </mxGeometry>
        </mxCell>
        <mxCell id="I7UhPi0JV_NqZPCaO7OM-65" value="Include" style="html=1;verticalAlign=bottom;endArrow=open;dashed=1;endSize=8;curved=0;rounded=0;exitX=0;exitY=1;exitDx=0;exitDy=0;entryX=0.5;entryY=0;entryDx=0;entryDy=0;fontFamily=Times New Roman;fontSize=13;fontStyle=0" parent="1" source="I7UhPi0JV_NqZPCaO7OM-53" target="I7UhPi0JV_NqZPCaO7OM-54" edge="1">
          <mxGeometry x="0.1207" relative="1" as="geometry">
            <mxPoint x="1665" y="1821" as="sourcePoint" />
            <mxPoint x="1710" y="1890" as="targetPoint" />
            <mxPoint x="1" as="offset" />
          </mxGeometry>
        </mxCell>
        <mxCell id="I7UhPi0JV_NqZPCaO7OM-66" value="Include" style="html=1;verticalAlign=bottom;endArrow=open;dashed=1;endSize=8;curved=0;rounded=0;exitX=0.5;exitY=1;exitDx=0;exitDy=0;entryX=0.5;entryY=0;entryDx=0;entryDy=0;fontFamily=Times New Roman;fontSize=13;fontStyle=0" parent="1" source="I7UhPi0JV_NqZPCaO7OM-53" target="I7UhPi0JV_NqZPCaO7OM-55" edge="1">
          <mxGeometry x="0.1207" relative="1" as="geometry">
            <mxPoint x="1675" y="1831" as="sourcePoint" />
            <mxPoint x="1720" y="1900" as="targetPoint" />
            <mxPoint x="1" as="offset" />
          </mxGeometry>
        </mxCell>
        <mxCell id="I7UhPi0JV_NqZPCaO7OM-67" value="Include" style="html=1;verticalAlign=bottom;endArrow=open;dashed=1;endSize=8;curved=0;rounded=0;exitX=1;exitY=1;exitDx=0;exitDy=0;entryX=0.5;entryY=0;entryDx=0;entryDy=0;fontFamily=Times New Roman;fontSize=13;fontStyle=0" parent="1" source="I7UhPi0JV_NqZPCaO7OM-53" target="I7UhPi0JV_NqZPCaO7OM-56" edge="1">
          <mxGeometry x="0.1207" relative="1" as="geometry">
            <mxPoint x="2185" y="1881" as="sourcePoint" />
            <mxPoint x="2080" y="1950" as="targetPoint" />
            <mxPoint x="1" as="offset" />
          </mxGeometry>
        </mxCell>
        <mxCell id="I7UhPi0JV_NqZPCaO7OM-68" value="" style="endArrow=none;html=1;rounded=0;entryX=1;entryY=0.5;entryDx=0;entryDy=0;fontStyle=0;fontFamily=Times New Roman;fontSize=13;" parent="1" target="I7UhPi0JV_NqZPCaO7OM-8" edge="1">
          <mxGeometry width="50" height="50" relative="1" as="geometry">
            <mxPoint x="2410" y="1550" as="sourcePoint" />
            <mxPoint x="1760" y="1335" as="targetPoint" />
          </mxGeometry>
        </mxCell>
        <mxCell id="I7UhPi0JV_NqZPCaO7OM-69" value="" style="endArrow=none;html=1;rounded=0;entryX=1;entryY=0.5;entryDx=0;entryDy=0;fontFamily=Times New Roman;fontSize=13;fontStyle=0" parent="1" target="I7UhPi0JV_NqZPCaO7OM-16" edge="1">
          <mxGeometry width="50" height="50" relative="1" as="geometry">
            <mxPoint x="2410" y="1570" as="sourcePoint" />
            <mxPoint x="1770" y="1400" as="targetPoint" />
          </mxGeometry>
        </mxCell>
        <mxCell id="JXSw63rtv7T_D-Yg8UCI-1" value="Include" style="html=1;verticalAlign=bottom;endArrow=open;dashed=1;endSize=8;curved=0;rounded=0;exitX=0;exitY=0.5;exitDx=0;exitDy=0;fontFamily=Times New Roman;fontSize=13;fontStyle=0;entryX=1;entryY=0.5;entryDx=0;entryDy=0;" parent="1" source="I7UhPi0JV_NqZPCaO7OM-49" target="5jCT0pfXnlYJdVmQb8YE-1" edge="1">
          <mxGeometry x="-0.1813" y="11" relative="1" as="geometry">
            <mxPoint x="2110" y="1275" as="sourcePoint" />
            <mxPoint x="2040" y="1230" as="targetPoint" />
            <mxPoint as="offset" />
          </mxGeometry>
        </mxCell>
        <mxCell id="JXSw63rtv7T_D-Yg8UCI-2" value="Xóa tài khoản" style="ellipse;whiteSpace=wrap;html=1;fontFamily=Times New Roman;fontSize=13;fontStyle=0" parent="1" vertex="1">
          <mxGeometry x="1960" y="1110" width="130" height="75" as="geometry" />
        </mxCell>
        <mxCell id="5jCT0pfXnlYJdVmQb8YE-1" value="Xem danh sách tài khoản" style="ellipse;whiteSpace=wrap;html=1;fontFamily=Times New Roman;fontSize=13;fontStyle=0" parent="1" vertex="1">
          <mxGeometry x="1900" y="1220" width="130" height="75" as="geometry" />
        </mxCell>
        <mxCell id="5jCT0pfXnlYJdVmQb8YE-2" value="Include" style="html=1;verticalAlign=bottom;endArrow=open;dashed=1;endSize=8;curved=0;rounded=0;exitX=0.367;exitY=0;exitDx=0;exitDy=0;fontFamily=Times New Roman;fontSize=13;fontStyle=0;entryX=1;entryY=1;entryDx=0;entryDy=0;exitPerimeter=0;" parent="1" source="I7UhPi0JV_NqZPCaO7OM-49" target="JXSw63rtv7T_D-Yg8UCI-2" edge="1">
          <mxGeometry x="-0.1813" y="11" relative="1" as="geometry">
            <mxPoint x="2120" y="1290" as="sourcePoint" />
            <mxPoint x="2040" y="1300" as="targetPoint" />
            <mxPoint as="offset" />
          </mxGeometry>
        </mxCell>
        <mxCell id="81e60GwzpviN4T54piEL-2" value="" style="endArrow=none;html=1;rounded=0;" parent="1" edge="1">
          <mxGeometry width="50" height="50" relative="1" as="geometry">
            <mxPoint x="1240" y="1960" as="sourcePoint" />
            <mxPoint x="1240" y="1040" as="targetPoint" />
          </mxGeometry>
        </mxCell>
        <mxCell id="81e60GwzpviN4T54piEL-4" value="" style="endArrow=none;html=1;rounded=0;" parent="1" edge="1">
          <mxGeometry width="50" height="50" relative="1" as="geometry">
            <mxPoint x="1240" y="1040" as="sourcePoint" />
            <mxPoint x="2400" y="1040" as="targetPoint" />
          </mxGeometry>
        </mxCell>
        <mxCell id="81e60GwzpviN4T54piEL-5" value="" style="endArrow=none;html=1;rounded=0;" parent="1" edge="1">
          <mxGeometry width="50" height="50" relative="1" as="geometry">
            <mxPoint x="2400" y="1960" as="sourcePoint" />
            <mxPoint x="2400" y="1040" as="targetPoint" />
          </mxGeometry>
        </mxCell>
        <mxCell id="81e60GwzpviN4T54piEL-6" value="" style="endArrow=none;html=1;rounded=0;" parent="1" edge="1">
          <mxGeometry width="50" height="50" relative="1" as="geometry">
            <mxPoint x="1240" y="1960" as="sourcePoint" />
            <mxPoint x="2400" y="1960" as="targetPoint" />
          </mxGeometry>
        </mxCell>
        <mxCell id="-69JEcYPjZ3-7Qg4jLRO-1" value="" style="endArrow=none;html=1;rounded=0;entryX=0;entryY=0.5;entryDx=0;entryDy=0;fontFamily=Times New Roman;fontSize=13;fontStyle=0" parent="1" target="I7UhPi0JV_NqZPCaO7OM-8" edge="1">
          <mxGeometry width="50" height="50" relative="1" as="geometry">
            <mxPoint x="1170" y="1530" as="sourcePoint" />
            <mxPoint x="1310" y="1570" as="targetPoint" />
          </mxGeometry>
        </mxCell>
        <mxCell id="-69JEcYPjZ3-7Qg4jLRO-2" value="" style="endArrow=none;html=1;rounded=0;entryX=0.08;entryY=0.853;entryDx=0;entryDy=0;fontFamily=Times New Roman;fontSize=13;fontStyle=0;entryPerimeter=0;" parent="1" target="I7UhPi0JV_NqZPCaO7OM-15" edge="1">
          <mxGeometry width="50" height="50" relative="1" as="geometry">
            <mxPoint x="1180" y="1540" as="sourcePoint" />
            <mxPoint x="1610" y="1260" as="targetPoint" />
          </mxGeometry>
        </mxCell>
        <mxCell id="-69JEcYPjZ3-7Qg4jLRO-3" value="" style="endArrow=none;html=1;rounded=0;entryX=0;entryY=0.5;entryDx=0;entryDy=0;fontFamily=Times New Roman;fontSize=13;fontStyle=0" parent="1" target="I7UhPi0JV_NqZPCaO7OM-16" edge="1">
          <mxGeometry width="50" height="50" relative="1" as="geometry">
            <mxPoint x="1190" y="1550" as="sourcePoint" />
            <mxPoint x="1620" y="1270" as="targetPoint" />
          </mxGeometry>
        </mxCell>
        <mxCell id="-69JEcYPjZ3-7Qg4jLRO-4" value="Extend" style="html=1;verticalAlign=bottom;endArrow=open;dashed=1;endSize=8;curved=0;rounded=0;fontFamily=Times New Roman;fontSize=13;fontStyle=0;entryX=0.29;entryY=0.95;entryDx=0;entryDy=0;exitX=0.713;exitY=0.033;exitDx=0;exitDy=0;exitPerimeter=0;entryPerimeter=0;" parent="1" source="I7UhPi0JV_NqZPCaO7OM-15" target="I7UhPi0JV_NqZPCaO7OM-8" edge="1">
          <mxGeometry x="-0.2" relative="1" as="geometry">
            <mxPoint x="1610" y="1310" as="sourcePoint" />
            <mxPoint x="1660" y="1140" as="targetPoint" />
            <mxPoint as="offset" />
          </mxGeometry>
        </mxCell>
        <mxCell id="-69JEcYPjZ3-7Qg4jLRO-5" value="Extend" style="html=1;verticalAlign=bottom;endArrow=open;dashed=1;endSize=8;curved=0;rounded=0;fontFamily=Times New Roman;fontSize=13;fontStyle=0;entryX=0.78;entryY=1;entryDx=0;entryDy=0;entryPerimeter=0;" parent="1" source="I7UhPi0JV_NqZPCaO7OM-16" target="I7UhPi0JV_NqZPCaO7OM-8" edge="1">
          <mxGeometry x="-0.2" relative="1" as="geometry">
            <mxPoint x="1753" y="1292" as="sourcePoint" />
            <mxPoint x="1695" y="1251" as="targetPoint" />
            <mxPoint as="offset" />
          </mxGeometry>
        </mxCell>
        <mxCell id="-69JEcYPjZ3-7Qg4jLRO-6" value="Include" style="html=1;verticalAlign=bottom;endArrow=open;dashed=1;endSize=8;curved=0;rounded=0;exitX=0.43;exitY=1.033;exitDx=0;exitDy=0;entryX=0.58;entryY=0.017;entryDx=0;entryDy=0;fontFamily=Times New Roman;fontSize=13;fontStyle=0;entryPerimeter=0;exitPerimeter=0;" parent="1" source="I7UhPi0JV_NqZPCaO7OM-16" target="I7UhPi0JV_NqZPCaO7OM-39" edge="1">
          <mxGeometry x="0.1207" relative="1" as="geometry">
            <mxPoint x="1760" y="1670" as="sourcePoint" />
            <mxPoint x="1830" y="1670" as="targetPoint" />
            <mxPoint x="1" as="offset" />
          </mxGeometry>
        </mxCell>
      </root>
    </mxGraphModel>
  </diagram>
</mxfile>
